<?xml version="1.0" encoding="UTF-8" standalone="no"?>
<!-- Created with Inkscape (http://www.inkscape.org/) -->

<svg
   version="1.1"
   id="svg1"
   width="608"
   height="382"
   viewBox="0 0 608 382"
   xmlns="http://www.w3.org/2000/svg"
   xmlns:svg="http://www.w3.org/2000/svg">
  <defs
     id="defs1">
    <rect
       x="295.26379"
       y="-104.28466"
       width="570.42456"
       height="609.37421"
       id="rect7" />
  </defs>
  <g
     id="g1">
    <path
       d="m 347.45215,360.27568 c 14.46664,0 23.8933,-7.37332 23.8933,-18.75997 0,-22.95997 -36.30662,-13.81332 -36.30662,-30.51996 0,-6.81332 5.50666,-10.54665 15.39998,-10.54665 5.50666,0 11.47998,1.12 16.14664,3.07999 l 2.33333,-6.06665 c -5.50665,-2.42667 -11.75998,-3.73333 -17.91997,-3.73333 -14.46665,0 -23.8933,7.18665 -23.8933,18.47997 0,22.2133 36.21328,13.90665 36.21328,30.42662 0,6.53333 -5.59999,10.73332 -15.39998,10.73332 -5.87999,0 -13.15998,-1.58666 -19.50663,-4.19999 l -2.33333,6.06666 c 7.18665,3.26666 14.46664,5.03999 21.3733,5.03999 z m 55.06654,0 c 5.13333,0 10.73332,-1.21333 14.74665,-3.36 l -1.68,-5.41332 c -3.45333,1.68 -7.83999,2.70666 -11.75999,2.70666 -9.51998,0 -15.49331,-5.69332 -16.6133,-15.30664 H 418.572 c 0.18667,-1.4 0.37333,-4.66666 0.37333,-6.43999 0,-11.29332 -7.46665,-19.03998 -18.5733,-19.03998 -12.50665,0 -20.99997,9.79999 -20.99997,23.6133 0,14.37331 8.86665,23.23997 23.14663,23.23997 z m -2.70666,-40.50661 c 7.65332,0 12.13331,4.94666 12.13331,13.53331 h -24.82663 c 0.65333,-8.77332 5.13333,-13.53331 12.69332,-13.53331 z m 31.73327,39.57328 h 7.46666 v -32.10662 c 2.89333,-3.92 7.46665,-6.25333 12.50664,-6.25333 1.77334,0 3.45333,0.28 4.94666,0.84 l 1.86667,-6.90666 c -1.96,-0.65333 -3.92,-1.02666 -5.97333,-1.02666 -5.41332,0 -10.45331,2.61333 -13.81331,6.99999 l -0.84,-6.53333 h -6.15999 z m 46.29317,0 h 7.27999 l 17.54665,-44.98661 h -7.46666 l -13.53331,37.70662 -13.25332,-37.70662 h -8.30665 z m 53.94654,0.93333 c 5.13332,0 10.73332,-1.21333 14.74664,-3.36 l -1.67999,-5.41332 c -3.45333,1.68 -7.83999,2.70666 -11.75999,2.70666 -9.51998,0 -15.49331,-5.69332 -16.61331,-15.30664 h 31.35996 c 0.18667,-1.4 0.37333,-4.66666 0.37333,-6.43999 0,-11.29332 -7.46665,-19.03998 -18.5733,-19.03998 -12.50665,0 -20.99997,9.79999 -20.99997,23.6133 0,14.37331 8.86665,23.23997 23.14663,23.23997 z m -2.70666,-40.50661 c 7.65332,0 12.13331,4.94666 12.13331,13.53331 h -24.82663 c 0.65333,-8.77332 5.13333,-13.53331 12.69332,-13.53331 z m 31.73328,39.57328 h 7.46665 v -32.10662 c 2.89333,-3.92 7.46666,-6.25333 12.50665,-6.25333 1.77333,0 3.45333,0.28 4.94666,0.84 l 1.86667,-6.90666 c -1.96,-0.65333 -3.92,-1.02666 -5.97333,-1.02666 -5.41332,0 -10.45332,2.61333 -13.81331,6.99999 l -0.84,-6.53333 h -6.15999 z"
       id="text6"
       style="font-size:93.3332px;font-family:Cantarell;-inkscape-font-specification:'Cantarell, Normal';stroke-width:25"
       aria-label="Server" />
    <g
       id="g3"
       transform="translate(-41.462577,-628.47607)">
      <path
         id="path1"
         style="fill:#ed9900;stroke:#edc600;stroke-width:25"
         d="M 395.77914,820.45642 A 162.08098,162.08098 0 0 1 233.69817,982.5374 162.08098,162.08098 0 0 1 71.617187,820.45642 162.08098,162.08098 0 0 1 233.69817,658.37544 162.08098,162.08098 0 0 1 395.77914,820.45642 Z" />
      <path
         id="path2"
         style="fill:#4e4e4e;fill-opacity:0;stroke:#ffffff;stroke-width:26.0456"
         d="m 325.3698,770.26257 a 45.580894,45.580894 0 0 1 -45.58089,45.5809 45.580894,45.580894 0 0 1 -45.58089,-45.5809 45.580894,45.580894 0 0 1 45.58089,-45.58089 45.580894,45.580894 0 0 1 45.58089,45.58089 z" />
      <path
         style="fill:#ffffff;fill-opacity:1;stroke:none;stroke-width:28;stroke-dasharray:none;stroke-opacity:1"
         d="m 256.54478,799.78895 -21.35951,-2.51288 c 0,0 -82.92515,77.89939 -96.74601,92.97669 -13.82086,15.0773 8.48322,38.0053 31.41105,15.0773 1.25644,-1.25645 27.64171,27.64172 27.64171,27.64172 l 36.43681,-36.43681 -26.38527,-26.38528 50.25767,-51.51411 z"
         id="path3" />
    </g>
    <path
       d="m 406.58315,122.42816 c -7.09332,7.27999 -30.42662,19.1333 -35.18662,17.63997 0.37334,-0.65333 0.84,-1.30666 1.21334,-1.95999 1.02666,-2.14667 -1.49334,-3.26667 -2.89333,-1.68 -1.4,1.49333 -2.61333,4.38666 -1.02667,6.15999 1.4,1.58666 4.47999,0.93333 6.25333,0.56 6.90665,-1.58667 47.22659,-18.19997 34.43995,-28.09329 -9.89332,-7.65333 -44.79994,-1.4 -49.09327,-12.97332 -1.39999,-3.826659 2.33333,-8.21332 4.66666,-10.919982 9.33332,-10.826651 27.8133,-21.093303 42.27994,-21.093303 1.49333,0 4.38666,-0.09333 5.04,1.586664 2.33333,6.906657 -16.51998,19.226639 -20.99997,21.746635 -1.77334,1.026666 -3.82667,1.773331 -5.50666,2.799996 -2.05333,1.213332 -0.37334,3.546662 1.67999,2.986663 6.90666,-2.053331 34.99995,-22.773301 26.6933,-30.706623 -2.24,-2.146663 -6.71999,-1.959997 -9.61332,-1.866664 -14.65331,0.466666 -36.30661,13.906647 -44.7066,25.66663 -2.24,3.079996 -4.01333,6.813324 -2.8,10.733314 4.29333,13.71998 37.23995,8.58666 48.6266,13.71998 3.54666,1.49334 3.26666,3.36 0.93333,5.69333 z m 82.50638,-9.61332 c -2.61333,1.86666 -18.10664,11.47998 -20.15997,5.97332 -0.84,-2.33333 0,-5.22665 0.37333,-7.46665 0.46667,-2.14667 1.30667,-4.66666 0.46667,-6.81332 -0.93333,-2.33333 -3.64,-2.42667 -5.97333,-1.86667 -3.54666,0.84 -6.53332,2.61333 -9.33332,4.66666 -3.26666,2.24 -6.71999,4.47999 -10.35998,6.34666 -0.74667,0.37333 -4.38666,2.33333 -4.48,0.46666 -0.0933,-2.14666 2.14667,-4.57332 2.98667,-6.53332 0.56,-1.68 0.37333,-3.73333 -1.49333,-4.75999 -1.58667,-0.74667 -3.54667,-0.28 -5.04,0.37333 -3.91999,1.86666 -7.37332,4.94666 -10.26665,8.02666 1.77333,-3.08 3.82666,-5.97333 5.97333,-8.77333 1.30666,-1.49333 -1.58667,-3.079991 -2.70667,-1.49333 -5.22666,6.43999 -9.05332,13.71998 -12.69331,20.90664 -0.93333,1.58666 1.58666,3.17333 2.61333,1.49333 3.17333,-4.85333 7.93332,-9.33332 12.41331,-13.15998 1.96,-1.86666 4.57333,-4.10666 7.37333,-4.85333 2.33333,-0.46666 -0.93334,4.66666 -1.30667,5.41333 -1.4,2.52 -1.86666,5.97332 1.86666,7.09332 2.89333,0.74667 6.62666,-1.77333 8.95999,-2.98666 3.36,-2.05333 6.43999,-4.19999 9.61332,-6.34666 2.14666,-1.4 6.15999,-3.63999 8.58666,-3.26666 1.30666,0.28 -0.56,7.46666 -0.74667,8.49332 -0.56,3.36 -0.65333,8.02666 3.63999,9.14666 6.72,1.67999 14.65332,-5.04 20.71997,-8.58666 1.68,-1.02666 0.74667,-2.61333 -1.02666,-1.49333 z m 45.45325,0 c -4.29332,2.05333 -21.27997,12.13332 -22.2133,1.86666 -0.37333,-3.17333 1.86667,-6.43999 3.73333,-8.86665 1.02666,-1.4 -0.93333,-3.17333 -2.33333,-2.33333 -1.49333,0.93333 -2.98666,1.86666 -4.29333,2.98666 -1.12,-3.91999 -4.75999,-4.94666 -8.77332,-3.45333 -4.75999,1.77333 -8.77332,5.32 -11.19998,9.70666 -0.93333,1.67999 -1.68,3.91999 -0.56,5.78665 1.21333,1.96 3.91999,1.68 5.87999,1.12 3.64,-0.93333 6.90666,-3.26666 9.89332,-5.50666 1.68,-1.21333 3.45333,-2.51999 5.03999,-3.82666 -2.79999,9.98666 2.05333,13.34665 10.17332,11.38665 5.59999,-1.30666 10.73332,-4.38666 15.86664,-7.18665 0.93334,-0.46667 0.93334,-1.02667 0.84,-1.4 -0.0933,-0.56 -0.93333,-0.84 -2.05333,-0.28 z m -34.34661,0.28 c -2.14667,1.49333 -4.38666,2.8 -6.90666,3.45333 -1.77333,0.37333 -1.86666,0 -1.12,-1.58667 1.4,-3.35999 4.19999,-5.69332 7.18666,-7.55999 2.05333,-1.21333 6.53332,-3.45332 6.90665,0.46667 0,0.28 0.0933,0.46667 0.28,0.74667 -2.14666,1.49333 -4.10666,3.07999 -6.34665,4.47999 z m 61.22643,-0.37333 c -2.24,2.14666 -19.41331,17.4533 -25.19997,13.62664 -1.95999,-1.21333 -0.46666,-5.78665 0.65333,-8.95998 2.8,-8.58666 6.71999,-16.89331 10.82666,-25.013301 3.07999,-6.159991 6.43999,-12.039982 9.89331,-17.919974 0.56,0.186666 1.02667,-0.09333 1.49334,-0.746665 0.83999,-2.053331 2.05333,-4.013328 2.61333,-6.159992 0.46666,-1.679997 -1.86667,-2.613329 -2.70667,-1.119998 -5.69332,9.05332 -10.91998,18.479973 -15.77331,28.093293 -4.10666,8.306657 -8.49332,17.359977 -10.54665,26.506627 -0.56,2.14666 -0.93333,4.94666 0.46667,6.90666 6.25332,8.95998 25.85329,-10.26665 29.67995,-13.99998 1.4,-1.30667 0.0933,-2.52 -1.39999,-1.21333 z m 26.59994,0 c -2.24,2.14666 -19.4133,17.4533 -25.19996,13.62664 -1.96,-1.21333 -0.46667,-5.78665 0.65333,-8.95998 2.8,-8.58666 6.71999,-16.89331 10.82665,-25.013301 3.08,-6.159991 6.43999,-12.039982 9.89332,-17.919974 0.56,0.186666 1.02666,-0.09333 1.49333,-0.746665 0.84,-2.053331 2.05333,-4.013328 2.61333,-6.159992 0.46667,-1.679997 -1.86666,-2.613329 -2.70666,-1.119998 -5.69333,9.05332 -10.91999,18.479973 -15.77331,28.093293 -4.10666,8.306657 -8.49332,17.359977 -10.54665,26.506627 -0.56,2.14666 -0.93334,4.94666 0.46666,6.90666 6.25333,8.95998 25.8533,-10.26665 29.67996,-13.99998 1.4,-1.30667 0.0933,-2.52 -1.4,-1.21333 z"
       id="text3"
       style="font-size:93.3332px;font-family:'High Empathy';-inkscape-font-specification:'High Empathy, Normal';stroke-width:25"
       aria-label="Small" />
    <path
       d="m 218.1302,285.21225 h 7.74666 v -26.22663 h 12.78665 c 0.65333,0 1.30666,0 2.05333,-0.0933 l 15.02664,26.31996 h 9.23999 l -16.42664,-27.99996 c 7.83998,-3.08 12.69331,-9.98665 12.69331,-18.66664 0,-11.38665 -8.39999,-18.10664 -21.6533,-18.10664 H 218.1302 Z M 238.66351,227.159 c 9.23998,0 14.65331,4.75999 14.65331,12.78665 0,7.93332 -4.85333,12.50665 -13.71998,12.50665 H 225.87686 V 227.159 Z m 56.74648,58.98658 c 5.13333,0 10.73332,-1.21333 14.74665,-3.35999 l -1.68,-5.41333 c -3.45333,1.68 -7.83999,2.70666 -11.75999,2.70666 -9.51998,0 -15.49331,-5.69332 -16.6133,-15.30664 h 31.35995 c 0.18667,-1.4 0.37333,-4.66666 0.37333,-6.43999 0,-11.29332 -7.46665,-19.03997 -18.5733,-19.03997 -12.50665,0 -20.99997,9.79998 -20.99997,23.6133 0,14.37331 8.86665,23.23996 23.14663,23.23996 z m -2.70666,-40.50661 c 7.65332,0 12.13331,4.94666 12.13331,13.53332 h -24.82663 c 0.65333,-8.77332 5.13333,-13.53332 12.69332,-13.53332 z m 45.35992,40.50661 c 11.10665,0 17.91998,-5.22666 17.91998,-13.53331 0,-16.51998 -26.87997,-10.35999 -26.87997,-20.53331 0,-3.91999 4.2,-6.43999 10.91999,-6.43999 3.82666,0 8.30665,0.84 12.13331,2.14667 l 1.77334,-6.06666 c -3.82667,-1.58667 -8.39999,-2.42666 -13.15999,-2.42666 -11.66665,0 -19.1333,5.13332 -19.1333,13.62664 0,16.14665 26.78663,9.42666 26.78663,20.43997 0,4.10666 -3.64,6.43999 -9.79999,6.43999 -4.75999,0 -11.10665,-1.30666 -15.86664,-3.35999 l -1.77333,6.06666 c 5.13332,2.33333 11.38665,3.63999 17.07997,3.63999 z m 47.78649,0 c 13.25331,0 22.2133,-9.61332 22.2133,-23.98663 0,-13.90665 -8.30665,-22.86663 -21.0933,-22.86663 -13.25332,0 -22.11997,9.51998 -22.11997,23.89329 0,13.90665 8.21332,22.95997 20.99997,22.95997 z m 1.02667,-6.53332 c -8.67999,0 -14.55998,-6.99999 -14.55998,-17.35998 0,-9.98665 5.31999,-16.42664 13.62664,-16.42664 8.67999,0 14.65332,7.09332 14.65332,17.35997 0,9.89332 -5.41333,16.42665 -13.71998,16.42665 z m 49.27988,6.53332 c 4.94666,0 9.98665,-1.77333 14.18664,-4.85332 l 1.68,3.91999 h 5.22666 v -44.9866 h -7.46666 v 35.27995 c -3.26666,2.61333 -7.37332,4.10666 -11.38665,4.10666 -6.99999,0 -11.01331,-4.10666 -11.01331,-11.38665 v -27.99996 h -7.46666 v 29.49329 c 0,9.98665 6.62666,16.42664 16.23998,16.42664 z m 36.58647,-0.93333 h 7.46666 v -32.10662 c 2.89333,-3.91999 7.46666,-6.25332 12.50665,-6.25332 1.77333,0 3.45333,0.27999 4.94666,0.83999 l 1.86666,-6.90665 c -1.95999,-0.65334 -3.91999,-1.02667 -5.97332,-1.02667 -5.41333,0 -10.45332,2.61333 -13.81332,6.99999 l -0.83999,-6.53332 h -6.16 z m 52.82649,0.93333 c 5.41332,0 11.01331,-1.30666 14.74664,-3.54666 l -1.68,-5.41333 c -3.73332,1.77334 -7.83998,2.8 -11.29331,2.8 -9.33332,0 -14.65331,-6.53332 -14.65331,-17.45331 0,-10.82665 5.22665,-16.70664 14.55997,-16.70664 3.54667,0 7.55999,0.84 11.29332,2.52 l 1.77333,-6.06666 c -4.10666,-1.96 -8.49332,-2.98666 -12.97331,-2.98666 -13.34665,0 -22.30664,9.89332 -22.30664,24.73329 0,13.90665 7.65333,22.11997 20.53331,22.11997 z m 46.19984,0 c 5.13333,0 10.73332,-1.21333 14.74665,-3.35999 l -1.68,-5.41333 c -3.45333,1.68 -7.83999,2.70666 -11.75998,2.70666 -9.51999,0 -15.49331,-5.69332 -16.61331,-15.30664 h 31.35995 c 0.18667,-1.4 0.37334,-4.66666 0.37334,-6.43999 0,-11.29332 -7.46666,-19.03997 -18.57331,-19.03997 -12.50665,0 -20.99997,9.79998 -20.99997,23.6133 0,14.37331 8.86665,23.23996 23.14663,23.23996 z m -2.70666,-40.50661 c 7.65332,0 12.13332,4.94666 12.13332,13.53332 h -24.82663 c 0.65333,-8.77332 5.13332,-13.53332 12.69331,-13.53332 z"
       id="text5"
       style="font-size:93.3332px;font-family:Cantarell;-inkscape-font-specification:'Cantarell, Normal';stroke-width:25"
       aria-label="Resource" />
    <text
       xml:space="preserve"
       id="text7"
       style="font-size:93.3332px;font-family:Cantarell;-inkscape-font-specification:'Cantarell, Normal';text-align:start;writing-mode:lr-tb;direction:ltr;white-space:pre;shape-inside:url(#rect7);display:inline;fill:#ffffff;fill-opacity:1;stroke:none;stroke-width:25;stroke-dasharray:none;stroke-opacity:1" />
  </g>
</svg>
